<mxfile host="app.diagrams.net" modified="2022-08-23T20:18:50.941Z" agent="5.0 (Macintosh; Intel Mac OS X 10_15_7) AppleWebKit/537.36 (KHTML, like Gecko) Chrome/103.0.5060.114 Safari/537.36" etag="aUA27eQQDjkShUpJOPdK" version="20.2.6" type="github">
  <diagram id="F8ZzzhPt6WF929b765hf" name="Page-1">
    <mxGraphModel dx="1011" dy="822" grid="1" gridSize="10" guides="1" tooltips="1" connect="1" arrows="1" fold="1" page="1" pageScale="1" pageWidth="850" pageHeight="1100" math="0" shadow="0">
      <root>
        <mxCell id="0" />
        <mxCell id="1" parent="0" />
        <mxCell id="QiHXSJGMS_nSBbkuwhRs-2" style="edgeStyle=orthogonalEdgeStyle;rounded=1;orthogonalLoop=1;jettySize=auto;html=1;strokeColor=#999999;strokeWidth=4;sketch=1;curved=1;" parent="1" source="HjBLI1Xo3R_VCkkVAhqT-1" target="QiHXSJGMS_nSBbkuwhRs-1" edge="1">
          <mxGeometry relative="1" as="geometry" />
        </mxCell>
        <mxCell id="HjBLI1Xo3R_VCkkVAhqT-1" value="" style="ellipse;whiteSpace=wrap;html=1;fillColor=#dae8fc;strokeColor=#6c8ebf;shadow=1;sketch=1;rounded=1;" parent="1" vertex="1">
          <mxGeometry x="100" y="150" width="220" height="220" as="geometry" />
        </mxCell>
        <mxCell id="QiHXSJGMS_nSBbkuwhRs-1" value="" style="rounded=1;whiteSpace=wrap;html=1;sketch=1;fillColor=#d5e8d4;strokeColor=#82b366;" parent="1" vertex="1">
          <mxGeometry x="390" y="510" width="290" height="220" as="geometry" />
        </mxCell>
      </root>
    </mxGraphModel>
  </diagram>
</mxfile>
